<?xml version="1.0" encoding="UTF-8"?>
<svg id="Ebene_1" xmlns="http://www.w3.org/2000/svg" version="1.1" viewBox="0 0 50 50">
  <!-- Generator: Adobe Illustrator 29.3.0, SVG Export Plug-In . SVG Version: 2.1.0 Build 146)  -->
  <defs>
    <style>
      .st0 {
        fill: #e52a24;
      }
    </style>
  </defs>
  <path class="st0" d="M25,5C14,5,5,14,5,25s9,20,20,20,20-9,20-20S36,5,25,5ZM27.4,25s5.2,5.2,5.5,5.5c.7.7.7,1.7,0,2.4-.7.7-1.7.7-2.4,0-.3-.3-5.5-5.5-5.5-5.5,0,0-5.2,5.2-5.5,5.5-.7.7-1.7.7-2.4,0-.7-.7-.7-1.7,0-2.4.3-.3,5.5-5.5,5.5-5.5,0,0-5.2-5.2-5.5-5.5-.7-.7-.7-1.7,0-2.4.7-.7,1.7-.7,2.4,0,.3.3,5.5,5.5,5.5,5.5,0,0,5.2-5.2,5.5-5.5.7-.7,1.7-.7,2.4,0,.7.7.7,1.7,0,2.4-.3.3-5.5,5.5-5.5,5.5h0Z"/>
</svg>