<?xml version="1.0" encoding="UTF-8"?>
<svg id="Ebene_1" xmlns="http://www.w3.org/2000/svg" version="1.1" viewBox="0 0 50 51">
  <!-- Generator: Adobe Illustrator 29.3.1, SVG Export Plug-In . SVG Version: 2.1.0 Build 151)  -->
  <path d="M25.1,5.6C14.1,5.6,5.1,14.6,5.1,25.6s9,20,20,20,20-9,20-20S36.2,5.6,25.1,5.6ZM27.5,25.6s5.2,5.2,5.5,5.5c.7.7.7,1.7,0,2.4s-1.7.7-2.4,0l-5.5-5.5s-5.2,5.2-5.5,5.5c-.7.7-1.7.7-2.4,0-.7-.7-.7-1.7,0-2.4l5.5-5.5s-5.2-5.2-5.5-5.5c-.7-.7-.7-1.7,0-2.4.7-.7,1.7-.7,2.4,0l5.5,5.5s5.2-5.2,5.5-5.5c.7-.7,1.7-.7,2.4,0s.7,1.7,0,2.4l-5.5,5.5Z" fill="#fff"/>
</svg>