<?xml version="1.0" encoding="UTF-8"?>
<svg id="Ebene_4" xmlns="http://www.w3.org/2000/svg" version="1.1" viewBox="0 0 55 55">
  <!-- Generator: Adobe Illustrator 29.3.0, SVG Export Plug-In . SVG Version: 2.1.0 Build 146)  -->
  <path d="M46.89453,2.97314H11.85938c-1.99951,0-3.75391,1.69727-3.75391,3.63232v41.78906c0,1.93457,1.75439,3.63184,3.75391,3.63184h35.03516v-2.13184h-13.41797l3.49609-2.68945c2.9668-2.28125,4.66797-5.67773,4.66797-9.31836v-11.45264h-23.02686v11.45264c0,3.64062,1.70166,7.03711,4.66895,9.31836l3.49658,2.68945H10.35938V5.10547h8.25439v6.75391c0,.6377.42822,1.06592,1.06592,1.06592h20.89453c.51465,0,1.06641-.42822,1.06641-1.06592v-6.75391h5.25391v-2.13232ZM20.74561,37.88672v-9.32031h18.64111v9.32031c0,5.22559-4.09375,9.31934-9.32031,9.31934-5.13965,0-9.3208-4.18066-9.3208-9.31934Z" fill="#fff"/>
  <path d="M29,19.67969c0,.6377.55176,1.06592,1.06641,1.06592.58398,0,1.1875-.39893,1.1875-1.06592s-.60352-1.06592-1.1875-1.06592c-.51465,0-1.06641.42822-1.06641,1.06592Z" fill="#fff"/>
</svg>