<?xml version="1.0" encoding="UTF-8"?>
<svg id="Ebene_5" xmlns="http://www.w3.org/2000/svg" version="1.1" viewBox="0 0 55 55">
  <!-- Generator: Adobe Illustrator 29.3.0, SVG Export Plug-In . SVG Version: 2.1.0 Build 146)  -->
  <path d="M29.69043,15.77686c-.69336-.41357-1.43652-.61475-2.27148-.61475-.83398,0-1.57715.20117-2.27148.61523-.7124.42529-1.26611.979-1.69238,1.69287-.41357.69336-.61475,1.43652-.61475,2.271,0,.83496.20117,1.57764.61475,2.271.42578.71387.97949,1.26758,1.69287,1.69336,1.38672.82715,3.15576.82617,4.54248,0,.71289-.42578,1.26758-.97949,1.69336-1.69385.41309-.69287.61426-1.43555.61426-2.27051,0-.83447-.20117-1.57764-.61426-2.27148-.42676-.71338-.98047-1.26758-1.69336-1.69287Z" fill="#fff"/>
  <path d="M31.86035,30.86035c-1.37891-.74609-2.83203-1.1084-4.44141-1.1084s-3.06201.3623-4.44141,1.1084c-1.36865.74023-2.50049,1.75879-3.36426,3.02637-.54492.7998-.96045,1.66699-1.24219,2.5918h18.0957c-.28125-.92383-.69629-1.79199-1.24219-2.5918-.86328-1.26758-1.99512-2.28613-3.36426-3.02637Z" fill="#fff"/>
  <path d="M27.41895,3.04004L7.76611,7.3916c-.21631.05273-.37158.15479-.51758.34033-.14795.18848-.21387.36768-.21387.58057v24.26758c0,2.20215.52051,4.28711,1.54688,6.19531,1.02881,1.91211,2.47607,3.49805,4.30176,4.71484l14.53564,9.70605,14.53516-9.70508c1.82715-1.21777,3.27441-2.80371,4.30176-4.71484,1.02734-1.90918,1.54785-3.99316,1.54785-6.19629V8.3125c0-.21338-.06543-.3916-.21289-.5791-.14941-.18945-.30664-.2915-.52637-.34326L27.41895,3.04004ZM45.94043,32.58008c0,1.89453-.44434,3.68652-1.31934,5.32617s-2.1123,3-3.67676,4.04395l-13.52539,9.0166-13.5249-9.0166c-1.56348-1.04297-2.80029-2.40332-3.67676-4.04297-.87549-1.64062-1.31934-3.43262-1.31934-5.32715V9.05518l18.521-4.12744,18.52148,4.12744v23.5249Z" fill="#fff"/>
</svg>