<?xml version="1.0" encoding="UTF-8"?>
<svg xmlns="http://www.w3.org/2000/svg" version="1.1" viewBox="0 0 55 55">
  <!-- Generator: Adobe Illustrator 29.3.0, SVG Export Plug-In . SVG Version: 2.1.0 Build 146)  -->
  <g id="Ebene_1" display="none">
    <g id="Ebene_11" data-name="Ebene_1" display="none">
      <g>
        <path d="M35.49902,12.53711c1.9707,1.81641,2.9707,4.10791,2.9707,6.81055,0,.11133.02441.26562.21094.47363.10156.11279.2168.18799.45117.18799.2334,0,.34863-.0752.4502-.18799.1875-.20752.21094-.36182.21094-.47363,0-3.3374-1.04785-5.91504-3.20508-7.88037-2.18262-1.99072-4.61133-2.9585-7.42578-2.9585-.27539,0-.40137.08838-.48828.1748-.08594.08594-.17383.21094-.17383.48682,0,.27539.08789.40039.1748.48682.08594.08643.21191.1748.4873.1748,2.25684,0,4.38867.91016,6.33692,2.70508Z"/>
        <path d="M36.57324,40.84473c0-1.12793.23047-2.14062.68555-3.00781.45605-.87109.81641-1.39453,1.16895-1.69727.30957-.26562.55664-.44141.77539-.55078.21582-.10742.40625-.21484.57324-.32227,4.4834-3.84473,6.66309-8.57666,6.66309-14.46484,0-5.1665-1.89062-9.64355-5.62109-13.30664l-.01172-.0127c-3.66406-3.729-8.14062-5.62012-13.30664-5.62012-5.16943,0-9.66602,1.87549-13.36475,5.57422-3.69922,3.69922-5.57471,8.1958-5.57471,13.36523,0,3.0083.71338,5.91064,2.12061,8.62695,1.40771,2.7168,3.38281,4.99023,5.87061,6.75781l.25244.2334c.65381.42285,1.11768,1.12402,1.37939,2.08496.23633.86719.31592,1.58691.24268,2.19727v5.68555h18.14697v-5.54297h-.00001ZM35.25,45.06445h-15.50049v-5.32324h15.50049v5.32324ZM35.55469,38.41797h-16.03369l-.23438-.66992c-.41162-1.1748-1.05713-2.02441-1.97412-2.59668-2.31396-1.64062-4.12891-3.71387-5.44336-6.19727-1.31738-2.48779-1.98535-5.23096-1.98535-8.15234,0-4.82324,1.74072-9.00928,5.17383-12.44238,3.43359-3.43311,7.61963-5.17383,12.44238-5.17383,4.82324,0,9.00977,1.74072,12.44238,5.17383,3.43359,3.43311,5.17383,7.61914,5.17383,12.44238,0,5.40869-2.11133,9.92871-6.27539,13.43457l-.21484.1377c-1.22754.58496-2.15039,1.7002-2.82227,3.40918,0,0-.24902.63477-.24902.63476Z"/>
        <path d="M36.57324,47.3877v-.05762l-9.07324,4.60547-9.07373-4.60547v.05762c0,.98633.39355,1.60156,1.27637,1.99414l6.69824,3.45215c.75684.43066,1.56934.36621,2.10596.09766l6.85449-3.42676c.83203-.44043,1.21191-1.09668,1.21191-2.11719Z"/>
      </g>
    </g>
    <g id="Ebene_2">
      <path d="M19.60693,52.34863c.08496.09961.18066.14746.30127.15137.16211.00488.32324-.06543.46729-.18848l27.68896-24.80762c.47168-.43555.3252-1.02637.26855-1.19678-.07422-.2251-.32715-.75732-1.05469-.83398l-24.14111-2.38623L37.63086,2.83203c.0957-.11475.06055-.42188-.05957-.52197l-.17773-.1748c-.2373-.27881-.58496-.11572-.76074.02881L8.93506,26.97949c-.47119.43506-.32471,1.02637-.26807,1.19629.07471.22559.32715.75781,1.05469.83398l24.1416,2.38672-14.49316,20.25488c-.0957.11523-.06152.42188.05762.52148,0,0,.1792.17578.17919.17579Z" fill="#fff"/>
    </g>
  </g>
  <g id="Ebene_21" data-name="Ebene_2" display="none">
    <path d="M8.24512,48.7207c0,1.08594.36426,1.97852,1.11328,2.72754.74951.74902,1.62158,1.11328,2.66602,1.11328h31.79883c1.04492,0,1.91699-.36426,2.66602-1.11328s1.11328-1.6416,1.11328-2.72754V6.36279c0-1.08643-.36426-1.97852-1.11328-2.72803-.74902-.74902-1.62109-1.11328-2.66602-1.11328H12.02441c-1.04443,0-1.9165.36426-2.66602,1.11328-.74902.74951-1.11328,1.6416-1.11328,2.72803v42.35791ZM10.52441,4.86279h34.79883v16.229h-24.17822v-5.2793h-2.34131v5.2793h-8.2793V4.86279ZM10.52441,23.37109h8.2793v7.94922h2.34131v-7.94922h24.17822v26.84961H10.52441v-26.84961Z"/>
  </g>
  <g id="Ebene_3">
    <g>
      <path d="M39.62988,16.37744c-1.49121-1.49121-3.24219-2.68018-5.20508-3.53369-1.99121-.84717-4.14941-1.27832-6.4082-1.27832s-4.41699.43115-6.41504,1.28125c-1.95557.85059-3.70703,2.03955-5.19824,3.53076-1.4917,1.49219-2.68066,3.24365-3.53369,5.20508-.84717,1.9917-1.27832,4.15039-1.27832,6.4082,0,2.25732.43115,4.41553,1.28174,6.41455.84961,1.95508,2.03857,3.70605,3.53027,5.19824,1.4917,1.49121,3.24316,2.68066,5.20557,3.53418,1.9917.84668,4.1499,1.27832,6.40771,1.27832s4.41602-.43164,6.41504-1.28125c1.95508-.85059,3.70703-2.04004,5.19824-3.53125,1.49219-1.49219,2.68066-3.24316,3.5332-5.20508.84766-1.99023,1.27832-4.14844,1.27832-6.40771,0-2.26025-.43066-4.41846-1.28125-6.41553-.84961-1.9541-2.03809-3.70508-3.53027-5.19775ZM37.94629,37.9209c-2.74609,2.74609-6.08691,4.13867-9.92969,4.13867-3.8877,0-7.24023-1.38086-9.96436-4.10449-2.72363-2.72461-4.10449-6.07715-4.10449-9.96436,0-3.88818,1.38086-7.24072,4.10449-9.96436,2.72412-2.72412,6.07666-4.10498,9.96436-4.10498s7.24023,1.38086,9.96387,4.10498c2.72461,2.72412,4.10547,6.07666,4.10547,9.96436,0,3.84229-1.39258,7.18311-4.13965,9.93018Z" fill="#fff"/>
      <path d="M42.74512,10.04736c-.44922.4502-.65918.96094-.65918,1.60693,0,.64648.20996,1.15723.65918,1.60742.4502.44971.96094.65967,1.60742.65967s1.15723-.20996,1.60742-.66016c.4502-.44971.66016-.96045.66016-1.60693,0-.646-.20996-1.15674-.66016-1.60645-.4502-.45068-.96094-.66064-1.60742-.66064s-1.15723.20996-1.60742.66016Z" fill="#fff"/>
      <path d="M35.36719,26.71289c.11426-.14893.20898-.30469.28125-.46338.05371-.11865.08105-.26514.08105-.43701,0-.17236-.02734-.31885-.08008-.43457-.06543-.14404-.14746-.28369-.24609-.41797-.13477-.09863-.27441-.18115-.41699-.24609-.23047-.10547-.63379-.10645-.87305.00098-.15918.07227-.31152.16504-.46387.28174l-8.62695,8.62646c-.11475.15039-.20947.30664-.28174.46484-.0542.11914-.08057.2627-.08057.4375,0,.3252.10938.5791.35449.82422.24414.24414.49854.35352.82373.35352.17285,0,.31982-.02734.4375-.08008.15869-.07227.31445-.16699.46289-.28125l8.62842-8.62891Z" fill="#fff"/>
      <path d="M49.79785,2.85254H6.23535c-.95801,0-1.73975.31592-2.39014.96631-.6499.65088-.96631,1.43262-.96631,2.39014v43.5625c0,.95801.31641,1.74023.9668,2.39062.64941.65039,1.43115.96582,2.38965.96582h43.5625c.95898,0,1.74023-.31641,2.39062-.96582.64941-.65039.96582-1.43262.96582-2.39062V6.20898c0-.95752-.31641-1.73926-.96582-2.39062-.65039-.64941-1.43262-.96582-2.39062-.96582ZM50.79785,50.77148H5.23535V5.20898h45.5625v45.5625Z" fill="#fff"/>
      <path d="M25.83838,22.45605c-.17236,0-.31934.02686-.43701.08057-.1582.07227-.31445.16699-.46338.28174l-4.27148,4.271c-.11523.14941-.20996.30566-.28271.46533-.05273.11621-.07959.26318-.07959.43604,0,.32568.10938.57959.354.82471.24414.24414.49854.35352.82422.35352.17188,0,.31836-.02734.43408-.08008.16162-.07324.31738-.16797.46631-.28223l4.27197-4.27197c.11572-.15088.2085-.30273.28174-.46387.05322-.11719.08008-.26416.08008-.43652,0-.32568-.10889-.58008-.35352-.82471s-.49902-.35352-.82471-.35352Z" fill="#fff"/>
    </g>
  </g>
  <g id="Ebene_4" display="none">
    <g>
      <path d="M46.89453,2.97314H11.85938c-1.99951,0-3.75391,1.69727-3.75391,3.63232v41.78906c0,1.93457,1.75439,3.63184,3.75391,3.63184h35.03516v-2.13184h-13.41797l3.49609-2.68945c2.9668-2.28125,4.66797-5.67773,4.66797-9.31836v-11.45264h-23.02686v11.45264c0,3.64062,1.70166,7.03711,4.66895,9.31836l3.49658,2.68945H10.35938V5.10547h8.25439v6.75391c0,.6377.42822,1.06592,1.06592,1.06592h20.89453c.51465,0,1.06641-.42822,1.06641-1.06592v-6.75391h5.25391v-2.13232ZM20.74561,37.88672v-9.32031h18.64111v9.32031c0,5.22559-4.09375,9.31934-9.32031,9.31934-5.13965,0-9.3208-4.18066-9.3208-9.31934Z" fill="#fff"/>
      <path d="M29,19.67969c0,.6377.55176,1.06592,1.06641,1.06592.58398,0,1.1875-.39893,1.1875-1.06592s-.60352-1.06592-1.1875-1.06592c-.51465,0-1.06641.42822-1.06641,1.06592Z" fill="#fff"/>
    </g>
  </g>
</svg>