<?xml version="1.0" encoding="UTF-8"?>
<svg id="Ebene_1" xmlns="http://www.w3.org/2000/svg" version="1.1" viewBox="0 0 55 55">
  <!-- Generator: Adobe Illustrator 29.3.0, SVG Export Plug-In . SVG Version: 2.1.0 Build 146)  -->
  <g id="Ebene_2">
    <path d="M19.60693,52.34863c.08496.09961.18066.14746.30127.15137.16211.00488.32324-.06543.46729-.18848l27.68896-24.80762c.47168-.43555.3252-1.02637.26855-1.19678-.07422-.2251-.32715-.75732-1.05469-.83398l-24.14111-2.38623L37.63086,2.83203c.0957-.11475.06055-.42188-.05957-.52197l-.17773-.1748c-.2373-.27881-.58496-.11572-.76074.02881L8.93506,26.97949c-.47119.43506-.32471,1.02637-.26807,1.19629.07471.22559.32715.75781,1.05469.83398l24.1416,2.38672-14.49316,20.25488c-.0957.11523-.06152.42188.05762.52148,0,0,.1792.17578.17919.17579Z" fill="#fff"/>
  </g>
</svg>