<svg width="55" height="40" viewBox="0 0 55 40" fill="none" xmlns="http://www.w3.org/2000/svg">
<g filter="url(#filter0_d_23_439)">
<path d="M50.4296 30.5547L44.3096 11.4147C44.2613 11.2663 44.1356 11.1332 43.9536 11.0377C43.7716 10.9421 43.5443 10.89 43.31 10.89H11.69C11.2055 10.89 10.7873 11.1111 10.6904 11.4147L4.5704 30.5547C4.5092 30.7494 4.5857 30.9507 4.7795 31.1058C4.9733 31.2609 5.264 31.35 5.57 31.35H49.43C49.736 31.35 50.0267 31.2609 50.2205 31.1058C50.4143 30.954 50.4908 30.7494 50.4296 30.5547ZM45.1154 20.46H28.52V12.21H42.4787L45.1154 20.46ZM12.5213 12.21H26.48V20.46H9.8846L12.5213 12.21ZM9.4817 21.7173C9.6092 21.7569 9.752 21.78 9.905 21.78H26.48V30.03H6.8246L9.4817 21.7173ZM28.52 30.03V21.78H45.095C45.248 21.78 45.3908 21.7569 45.5183 21.7173L48.1754 30.03H28.52ZM31.07 5.27999C32.4776 5.27999 33.62 6.01919 33.62 6.92999C33.62 7.29299 34.079 7.58999 34.64 7.58999C35.201 7.58999 35.66 7.29299 35.66 6.92999C35.66 6.01919 36.8024 5.27999 38.21 5.27999C38.771 5.27999 39.23 4.98299 39.23 4.61999C39.23 4.25699 38.771 3.95999 38.21 3.95999C36.8024 3.95999 35.66 3.22079 35.66 2.30999C35.66 1.94699 35.201 1.64999 34.64 1.64999C34.079 1.64999 33.62 1.94699 33.62 2.30999C33.62 3.22079 32.4776 3.95999 31.07 3.95999C30.509 3.95999 30.05 4.25699 30.05 4.61999C30.05 4.98299 30.509 5.27999 31.07 5.27999ZM34.64 4.17119C34.844 4.33619 35.0786 4.48469 35.3336 4.61999C35.0786 4.75199 34.8491 4.90379 34.64 5.06879C34.436 4.90379 34.2014 4.75529 33.9464 4.61999C34.2014 4.48799 34.436 4.33619 34.64 4.17119ZM16.79 6.59999C18.1976 6.59999 19.34 7.33919 19.34 8.24999C19.34 8.61299 19.799 8.90999 20.36 8.90999C20.921 8.90999 21.38 8.61299 21.38 8.24999C21.38 7.33919 22.5224 6.59999 23.93 6.59999C24.491 6.59999 24.95 6.30299 24.95 5.93999C24.95 5.57699 24.491 5.27999 23.93 5.27999C22.5224 5.27999 21.38 4.54079 21.38 3.62999C21.38 3.26699 20.921 2.96999 20.36 2.96999C19.799 2.96999 19.34 3.26699 19.34 3.62999C19.34 4.54079 18.1976 5.27999 16.79 5.27999C16.229 5.27999 15.77 5.57699 15.77 5.93999C15.77 6.30299 16.229 6.59999 16.79 6.59999ZM20.36 5.49119C20.564 5.65619 20.7986 5.80469 21.0536 5.93999C20.7986 6.07199 20.5691 6.22379 20.36 6.38879C20.156 6.22379 19.9214 6.07529 19.6664 5.93999C19.9214 5.80799 20.156 5.65619 20.36 5.49119Z" fill="white"/>
</g>
<defs>
<filter id="filter0_d_23_439" x="-2" y="0" width="59" height="41" filterUnits="userSpaceOnUse" color-interpolation-filters="sRGB">
<feFlood flood-opacity="0" result="BackgroundImageFix"/>
<feColorMatrix in="SourceAlpha" type="matrix" values="0 0 0 0 0 0 0 0 0 0 0 0 0 0 0 0 0 0 127 0" result="hardAlpha"/>
<feOffset dy="4"/>
<feGaussianBlur stdDeviation="2"/>
<feComposite in2="hardAlpha" operator="out"/>
<feColorMatrix type="matrix" values="0 0 0 0 0 0 0 0 0 0 0 0 0 0 0 0 0 0 0.25 0"/>
<feBlend mode="normal" in2="BackgroundImageFix" result="effect1_dropShadow_23_439"/>
<feBlend mode="normal" in="SourceGraphic" in2="effect1_dropShadow_23_439" result="shape"/>
</filter>
</defs>
</svg>
