<?xml version="1.0" encoding="UTF-8"?>
<svg id="Ebene_2" xmlns="http://www.w3.org/2000/svg" version="1.1" viewBox="0 0 55 55">
  <!-- Generator: Adobe Illustrator 29.3.0, SVG Export Plug-In . SVG Version: 2.1.0 Build 146)  -->
  <path d="M8.24512,48.7207c0,1.08594.36426,1.97852,1.11328,2.72754.74951.74902,1.62158,1.11328,2.66602,1.11328h31.79883c1.04492,0,1.91699-.36426,2.66602-1.11328s1.11328-1.6416,1.11328-2.72754V6.36279c0-1.08643-.36426-1.97852-1.11328-2.72803-.74902-.74902-1.62109-1.11328-2.66602-1.11328H12.02441c-1.04443,0-1.9165.36426-2.66602,1.11328-.74902.74951-1.11328,1.6416-1.11328,2.72803v42.35791ZM10.52441,4.86279h34.79883v16.229h-24.17822v-5.2793h-2.34131v5.2793h-8.2793V4.86279ZM10.52441,23.37109h8.2793v7.94922h2.34131v-7.94922h24.17822v26.84961H10.52441v-26.84961Z" fill="#fff"/>
</svg>