<?xml version="1.0" encoding="UTF-8"?>
<svg id="Ebene_7" xmlns="http://www.w3.org/2000/svg" version="1.1" viewBox="0 0 55 55">
  <!-- Generator: Adobe Illustrator 29.3.0, SVG Export Plug-In . SVG Version: 2.1.0 Build 146)  -->
  <path d="M45.65923,13.44853c0-1.08785-.3727-2.00447-1.11806-2.74986-.74539-.74536-1.66201-1.11806-2.74986-1.11806s-2.00447.3727-2.74986,1.11806c-.74536.74539-1.11806,1.66201-1.11806,2.74986s.3727,2.00447,1.11806,2.74986c.74539.74536,1.66201,1.11806,2.74986,1.11806s2.00447-.3727,2.74986-1.11806c.74536-.74539,1.11806-1.66201,1.11806-2.74986ZM47.59319,13.44853h0c0,1.61165-.56406,2.98151-1.69221,4.10966s-2.49802,1.69221-4.10966,1.69221-2.98151-.56406-4.10966-1.69221-1.69221-2.49802-1.69221-4.10966.56406-2.98151,1.69221-4.10966,2.49802-1.69221,4.10966-1.69221,2.98151.56406,4.10966,1.69221,1.69221,2.49802,1.69221,4.10966ZM51.46111,18.28343c0-2.01455-.38275-3.88805-1.14829-5.62057-.76554-1.7728-1.80301-3.31392-3.11246-4.62338-1.30947-1.30945-2.85058-2.34692-4.62338-3.11246-1.73252-.76554-3.60602-1.14829-5.62057-1.14829s-3.88805.38275-5.62057,1.14829c-1.7728.76554-3.31392,1.80301-4.62338,3.11246-1.30945,1.30947-2.34692,2.85058-3.11246,4.62338-.76554,1.73252-1.14829,3.60602-1.14829,5.62057s.38275,3.88805,1.14829,5.62057c.76554,1.7728,1.80301,3.31392,3.11246,4.62338,1.30946,1.30945,2.85058,2.34692,4.62338,3.11246,1.73252.76554,3.60602,1.14829,5.62057,1.14829s3.88805-.38275,5.62057-1.14829c1.7728-.76554,3.31392-1.80301,4.62338-3.11246,1.30945-1.30946,2.34692-2.85058,3.11246-4.62338.76554-1.73252,1.14829-3.60602,1.14829-5.62057ZM22.45171,26.01927L3.11211,45.35887v6.76886h5.80188v-5.80188h5.80188v-5.80188h6.76886l7.73584-7.73584c-1.45047-.76554-2.74984-1.72242-3.89813-2.87073-1.14831-1.14829-2.10519-2.44766-2.87073-3.89813ZM31.21497,33.69467l-8.76325,8.76325h-5.80188v5.80188h-5.80188v5.80188H1.17815v-9.6698l20.36701-20.36701c-.32233-.88641-.57414-1.81309-.75546-2.78007-.18131-.96698-.27195-1.95409-.27195-2.96138,0-2.25629.42305-4.39169,1.26916-6.40624.88641-1.97426,2.07497-3.70674,3.56574-5.19752s3.22325-2.67933,5.19752-3.56574c2.01455-.84611,4.14995-1.26916,6.40624-1.26916s4.39169.42305,6.40624,1.26916c1.97426.88641,3.70674,2.07497,5.19752,3.56574s2.67933,3.22325,3.56574,5.19752c.84611,2.01455,1.26916,4.14995,1.26916,6.40624s-.42305,4.39169-1.26916,6.40624c-.88641,1.97426-2.07497,3.70674-3.56574,5.19752s-3.22325,2.67933-5.19752,3.56574c-2.01455.84611-4.14995,1.26916-6.40624,1.26916-1.00728,0-1.9944-.09065-2.96138-.27195-.96698-.18133-1.89366-.43313-2.78007-.75546Z" fill="#fff"/>
</svg>