<?xml version="1.0" encoding="UTF-8"?>
<svg id="Layer_1" xmlns="http://www.w3.org/2000/svg" version="1.1" viewBox="0 0 800 800">
  <!-- Generator: Adobe Illustrator 29.3.0, SVG Export Plug-In . SVG Version: 2.1.0 Build 146)  -->
  <g id="NewGroupe0">
    <g id="NewGroup33-0">
      <g>
        <path d="M120.41174,33.7527h0l-41.50391,41.50553M320.6577,172.65204l71.79251,14.92129c-26.09659,26.09497-190.35086,190.34901-208.48493,208.48122l-14.91759-71.79228,151.61001-151.61024h0ZM50.49836,103.66631l-23.8265,23.82512c-11.39599,11.39923-17.67186,26.55232-17.67186,42.66521,0,16.11891,6.27587,31.27177,17.67186,42.66891l113.86342,113.86389,15.82465,76.15894c2.08756,10.03482,9.47892,18.08849,19.29744,21.02412,2.63189.78561,5.31722,1.16708,7.9815,1.16708,7.27754,0,14.38043-2.8579,19.68446-8.16194l42.48685-42.48477,177.96661,404.1227c2.3418,5.31907,7.54705,8.48442,13.00654,8.48442,1.9129,0,3.85819-.3891,5.71974-1.20895,7.17877-3.16326,10.43711-11.54543,7.27546-18.72605l-160.03751-363.39885c12.60425,6.7006,26.63375,10.17917,40.83212,10.17917,11.03858,0,22.17987-2.0989,32.83512-6.42184,7.27014-2.95275,10.77324-11.23406,7.82419-18.50605-2.9509-7.26991-11.22665-10.77301-18.5042-7.82211-21.94645,8.89804-46.9405,3.83136-63.67985-12.90799l-18.51738-18.51553,83.10823-83.11008,18.51738,18.51947c16.74305,16.7412,21.80973,41.73525,12.90776,63.678-2.94882,7.27176.55428,15.557,7.82419,18.50397,7.27754,2.9509,15.55515-.5559,18.5042-7.82396,9.88306-24.36228,8.15037-51.26159-3.75941-73.66724l363.40463,160.03566c7.1827,3.16326,15.56463-.09693,18.72605-7.27569,3.16165-7.18085-.0967-15.56278-7.27731-18.72605l-404.12293-177.96685,34.91135-34.91135c7.24539-7.24724,9.92493-17.84929,6.99115-27.66596-2.93401-9.82037-10.98953-17.21196-21.02042-19.29536l-76.16288-15.82673-38.832-38.83177c-5.54855-5.54508-14.54167-5.54508-20.08861,0-5.54878,5.54878-5.54878,14.54375,0,20.08861l31.78602,31.78579-142.37052,142.37052-106.81629-106.81768c-6.03227-6.0288-9.35215-14.04847-9.35215-22.57846,0-8.52814,3.32173-16.54387,9.35215-22.57452l97.21615-97.21545c6.0288-6.03274,14.04639-9.35169,22.57452-9.35169,8.52999,0,16.54757,3.3208,22.57846,9.35169l34.87133,34.87156c5.54878,5.54485,14.5419,5.54485,20.08884,0,5.54693-5.55063,5.54693-14.5419,0-20.08884l-34.87156-34.87341c-11.39738-11.3953-26.55209-17.67093-42.66706-17.67093-6.09913,0-12.05784.90336-17.73177,2.63767" fill="#fff"/>
        <path d="M265.90643,504.30489c-2.14817-7.54682-10.01215-11.92875-17.55156-9.77665-7.54497,2.14817-11.92112,10.00451-9.7748,17.54948l31.98127,112.42337c1.77618,6.24903,7.46724,10.32329,13.65566,10.32329,1.28853,0,2.59395-.17651,3.89405-.54641,7.54497-2.14632,11.92112-10.00266,9.77665-17.54971l-31.98127-112.42337h0Z" fill="#fff"/>
        <path d="M628.46831,266.59412l-112.42314-31.98127c-7.53756-2.14447-15.40154,2.2296-17.54971,9.77665-2.14632,7.54335,2.23168,15.40154,9.77688,17.54971l112.42314,31.98127c1.29987.36805,2.60552.54664,3.89405.54664,6.18842,0,11.87763-4.07449,13.65566-10.32329,2.14447-7.54335-2.22983-15.40154-9.77688-17.54971h0Z" fill="#fff"/>
        <path d="M146.99506,108.30433l-42.29369,42.29508c-5.5474,5.54878-5.5474,14.54167,0,20.08861,2.77416,2.77254,6.41097,4.15777,10.04523,4.15777,3.63496,0,7.27084-1.38523,10.04615-4.15777l42.29276-42.29508c5.54878-5.54878,5.54878-14.5419,0-20.08861-5.54878-5.54508-14.54167-5.54508-20.09046,0h0Z" fill="#fff"/>
      </g>
    </g>
  </g>
</svg>