<?xml version="1.0" encoding="UTF-8"?>
<svg id="Ebene_9" xmlns="http://www.w3.org/2000/svg" version="1.1" viewBox="0 0 55 55">
  <!-- Generator: Adobe Illustrator 29.3.0, SVG Export Plug-In . SVG Version: 2.1.0 Build 146)  -->
  <rect x="2.11663" y="8.22645" width="50.76675" height="36.19511" rx="11.09889" ry="11.09889" fill="none" stroke="#fff" stroke-linecap="round" stroke-linejoin="round" stroke-width="2"/>
  <g>
    <g>
      <path d="M10.185,21.91532c.91771-2.56767,3.20545-4.38566,5.95619-4.38566" fill="none" stroke="#fff" stroke-linecap="round" stroke-linejoin="round" stroke-width="2"/>
      <path d="M13.72093,30.80206c-2.33157-1.04863-3.96756-3.38836-3.96756-6.24959" fill="none" stroke="#fff" stroke-linecap="round" stroke-linejoin="round" stroke-width="2"/>
      <path d="M22.17801,27.26546c-1.01618,2.40479-3.18008,4.07943-5.82015,4.07943" fill="none" stroke="#fff" stroke-linecap="round" stroke-linejoin="round" stroke-width="2"/>
      <path d="M18.81356,18.08856c2.3127,1.05748,3.93215,3.3868,3.93215,6.23351" fill="none" stroke="#fff" stroke-linecap="round" stroke-linejoin="round" stroke-width="2"/>
      <line x1="16.24953" y1="19.41639" x2="16.24953" y2="15.64293" fill="none" stroke="#fff" stroke-linecap="round" stroke-linejoin="round" stroke-width="2"/>
      <line x1="16.24953" y1="33.23162" x2="16.24953" y2="29.45816" fill="none" stroke="#fff" stroke-linecap="round" stroke-linejoin="round" stroke-width="2"/>
      <line x1="11.52772" y1="24.43727" x2="7.97902" y2="24.43727" fill="none" stroke="#fff" stroke-linecap="round" stroke-linejoin="round" stroke-width="2"/>
      <line x1="24.52004" y1="24.43727" x2="20.97136" y2="24.43727" fill="none" stroke="#fff" stroke-linecap="round" stroke-linejoin="round" stroke-width="2"/>
    </g>
    <g>
      <path d="M32.68593,21.91532c.91771-2.56767,3.20545-4.38566,5.95619-4.38566" fill="none" stroke="#fff" stroke-linecap="round" stroke-linejoin="round" stroke-width="2"/>
      <path d="M36.22186,30.80206c-2.33157-1.04863-3.96756-3.38836-3.96756-6.24959" fill="none" stroke="#fff" stroke-linecap="round" stroke-linejoin="round" stroke-width="2"/>
      <path d="M44.67894,27.26546c-1.01617,2.40479-3.18007,4.07943-5.82015,4.07943" fill="none" stroke="#fff" stroke-linecap="round" stroke-linejoin="round" stroke-width="2"/>
      <path d="M41.31448,18.08856c2.3127,1.05748,3.93215,3.3868,3.93215,6.23351" fill="none" stroke="#fff" stroke-linecap="round" stroke-linejoin="round" stroke-width="2"/>
      <line x1="38.75046" y1="19.41639" x2="38.75046" y2="15.64293" fill="none" stroke="#fff" stroke-linecap="round" stroke-linejoin="round" stroke-width="2"/>
      <line x1="38.75046" y1="33.23162" x2="38.75046" y2="29.45816" fill="none" stroke="#fff" stroke-linecap="round" stroke-linejoin="round" stroke-width="2"/>
      <line x1="34.02864" y1="24.43727" x2="30.47995" y2="24.43727" fill="none" stroke="#fff" stroke-linecap="round" stroke-linejoin="round" stroke-width="2"/>
      <line x1="47.02098" y1="24.43727" x2="43.47228" y2="24.43727" fill="none" stroke="#fff" stroke-linecap="round" stroke-linejoin="round" stroke-width="2"/>
    </g>
  </g>
  <g>
    <line x1="13.26756" y1="40.31906" x2="14.6385" y2="40.31906" fill="none" stroke="#fff" stroke-linecap="round" stroke-linejoin="round" stroke-width="2"/>
    <line x1="17.86057" y1="40.31906" x2="19.23152" y2="40.31906" fill="none" stroke="#fff" stroke-linecap="round" stroke-linejoin="round" stroke-width="2"/>
  </g>
  <g>
    <line x1="35.76848" y1="40.31906" x2="37.13943" y2="40.31906" fill="none" stroke="#fff" stroke-linecap="round" stroke-linejoin="round" stroke-width="2"/>
    <line x1="40.3615" y1="40.31906" x2="41.73244" y2="40.31906" fill="none" stroke="#fff" stroke-linecap="round" stroke-linejoin="round" stroke-width="2"/>
  </g>
  <polyline points="20.03137 44.53675 19.78316 47.2446 12.7159 47.2446 12.46769 44.53675" fill="none" stroke="#fff" stroke-linecap="round" stroke-linejoin="round" stroke-width="2"/>
  <polyline points="42.42396 44.53675 42.17575 47.2446 35.1085 47.2446 34.86028 44.53675" fill="none" stroke="#fff" stroke-linecap="round" stroke-linejoin="round" stroke-width="2"/>
</svg>