<?xml version="1.0" encoding="UTF-8"?>
<svg id="Ebene_8" xmlns="http://www.w3.org/2000/svg" version="1.1" viewBox="0 0 55 55">
  <!-- Generator: Adobe Illustrator 29.3.0, SVG Export Plug-In . SVG Version: 2.1.0 Build 146)  -->
  <path d="M39.27791,35.06682l-3.56154,16.09287c-.04396.21985-.16487.40672-.36276.56061-.19786.15389-.42869.23084-.69251.23084h-17.67578c-.26382,0-.49465-.07695-.69251-.23084-.19788-.15389-.3188-.34076-.36276-.56061l-3.56154-16.09287h26.90939ZM17.11723,23.19503c-1.40703.83544-2.81405,1.27512-4.22108,1.31909s-2.70412-.28581-3.89131-.98932c-1.75879-1.09925-3.11084-2.85801-4.0562-5.27635s-1.37405-5.25436-1.28611-8.50812c3.25377-.08795,6.08978.32977,8.50812,1.25313,2.41834.92336,4.15513,2.28641,5.2104,4.08917.74749,1.18718,1.09923,2.48428,1.05527,3.89131s-.48365,2.81405-1.31909,4.22108ZM30.44002,10.92751c.79145-1.27512,1.80274-2.39633,3.0339-3.36367,1.27512-.96734,2.75909-1.76977,4.45193-2.40735,1.69282-.63755,3.55052-1.11023,5.57313-1.41801,2.06658-.30778,4.26504-.41772,6.59544-.32977.08795,2.3304-.02199,4.52886-.32977,6.59544-.30778,2.02261-.78045,3.88031-1.41801,5.57313-.63758,1.69285-1.44,3.17681-2.40735,4.45193-.96734,1.23116-2.08855,2.24245-3.36367,3.0339-1.71481,1.05527-3.58351,1.53894-5.60612,1.451s-4.04519-.7255-6.0678-1.91268c-1.18718-2.02261-1.82473-4.04519-1.91268-6.0678s.39573-3.89131,1.451-5.60612ZM24.43817,30.51597h0l5.86994-5.80399c1.18718.61558,2.37436,1.08824,3.56154,1.41801,1.18718.3298,2.35237.49467,3.49558.49467,1.18718,0,2.3194-.1539,3.39664-.46168,1.07726-.30778,2.05558-.74749,2.93498-1.31909,1.451-.8794,2.74809-2.06656,3.89131-3.56154,1.09925-1.451,2.02259-3.14382,2.77008-5.07849s1.27512-4.06718,1.58291-6.39758.37373-4.81465.19786-7.45285c0-.26382-.09892-.48367-.29681-.65954-.19786-.17587-.42869-.28581-.69251-.32977-2.6382-.13191-5.12245-.04396-7.45285.26382s-4.46291.82442-6.39758,1.54992c-1.93467.72552-3.62749,1.63787-5.07849,2.73712-1.49498,1.14322-2.68214,2.44031-3.56154,3.89131-1.23116,2.02261-1.82473,4.1771-1.78077,6.46353s.68152,4.59482,1.91268,6.92521l-5.07849,5.07849-4.4849-4.4849c.8794-1.67085,1.31909-3.36367,1.31909-5.07849s-.43969-3.29772-1.31909-4.74872c-1.31909-2.19849-3.4516-3.84733-6.39758-4.94658s-6.35359-1.53894-10.22293-1.31909c-.26382,0-.49466.09892-.69252.29681-.19786.19786-.29679.42869-.29679.69251-.21985,3.86934.21984,7.27695,1.31909,10.22293s2.74809,5.07849,4.94658,6.39758c.65955.39573,1.39603.7145,2.20947.95633.81344.24185,1.65985.36276,2.53924.36276.92336,0,1.82473-.12091,2.70413-.36276.8794-.24183,1.69282-.5606,2.44031-.95633h-.06595l4.4849,4.4849-3.16581,3.16581H6.82835c-.30779,0-.56061.10992-.75848.32977s-.29679.46168-.29679.7255c0,.30778.09893.5606.29679.75849.19786.19786.45069.29678.75848.29678h3.36367l3.69345,16.4886c.13191.74749.48367,1.35206,1.05527,1.81375s1.23114.69252,1.97863.69252h17.80769c.74749,0,1.40703-.23084,1.97863-.69252s.92336-1.04427,1.05527-1.74779v-.06595l3.69345-16.4886h3.36367c.30778,0,.5606-.09892.75849-.29678.19786-.19788.29678-.45071.29678-.75849s-.09892-.5606-.29678-.75849c-.19789-.19786-.45071-.29678-.75849-.29678h-22.75427l2.37436-2.44031Z" fill="#fff"/>
</svg>