<?xml version="1.0" encoding="UTF-8"?>
<svg id="Ebene_6" xmlns="http://www.w3.org/2000/svg" version="1.1" viewBox="0 0 55 55">
  <!-- Generator: Adobe Illustrator 29.3.0, SVG Export Plug-In . SVG Version: 2.1.0 Build 146)  -->
  <path d="M26.64606,47.66096c-.07032.17579-.17579.3252-.31641.44825s-.31641.18457-.52735.18457h-.10547c-.03515,0-.07032-.01758-.10547-.05274v.05274l-8.75408-2.21489c-.07032-.03516-.13183-.06152-.18458-.0791-.05274-.01758-.09668-.04395-.13183-.0791l-5.53722-3.95516c-.10547-.07031-.19336-.16699-.26368-.29004s-.10547-.25489-.10547-.39552c0-.2461.0791-.44825.23731-.60646s.36036-.23731.60646-.23731c.10547,0,.19336.01758.26368.05274s.14063.07031.21094.10547l5.43175,3.84969,8.64861,2.16215c.17579.07031.3252.17578.44824.31641.12305.14063.18458.31641.18458.52735v.21094ZM51.06256,26.40858c-.03515.10547-.08789.20215-.15821.29004-.07032.08791-.15821.167-.26368.23732l-5.0626,2.5313-6.11731-12.28735,5.0626-2.5313c.03515-.03515.08789-.06153.15821-.07911.07032-.01756.14062-.02636.21094-.02636.14062,0,.28126.04394.42188.13183.14062.08791.24609.20217.31641.34279l5.37901,10.75803c.03515.07032.06153.13183.07911.18456.01756.05275.02636.11426.02636.18458v.15821c0,.03515-.01758.07032-.05274.10547ZM33.13252,41.43818l-12.86744-3.21686-11.12717-7.91031,6.43372-12.81471,11.07444-2.90045,6.27551,1.6348h-2.90045c-.10547,0-.21094.01758-.31641.05274s-.19336.10547-.26368.21094l-9.65058,9.33417c-.21094.21094-.38673.47462-.52735.79103s-.21094.65041-.21094,1.00197c0,.45703.10547.87012.31641,1.23929.21094.36915.4922.65918.84377.87012,2.10943,1.33597,4.35066,1.88089,6.72378,1.6348,2.37309-.24609,4.54402-1.26563,6.51281-3.05865l7.11928,5.69543-7.43569,7.43569ZM2.22956,26.40858c-.03516-.03515-.05274-.07032-.05274-.10547v-.15821c0-.07032.00879-.13183.02637-.18458.01758-.05274.04395-.11425.0791-.18456l5.37901-10.75803c.07031-.14062.17578-.25488.31641-.34279.14063-.08789.28125-.13183.42188-.13183.07031,0,.14063.00879.21094.02636.07031.01758.12305.04396.15821.07911l5.0626,2.5313-6.11731,12.28735-5.0626-2.5313c-.10547-.07032-.19336-.14941-.26368-.23732-.07031-.08789-.12305-.18456-.15821-.29004ZM41.78113,32.8423l-7.85758-6.32825c-.07032-.03515-.14941-.07032-.2373-.10547-.08791-.03515-.18458-.05274-.29005-.05274s-.21094.01758-.31641.05274-.19336.10547-.26368.21094c-2.07427,2.03911-4.17487,3.06745-6.30187,3.08503-2.12702.01757-3.91121-.44826-5.35265-1.3975-.10547-.07032-.19336-.15821-.26368-.26368s-.12305-.22853-.15821-.36915v-.05274c0-.14062.02636-.25488.07911-.34277.05274-.08791.11425-.167.18457-.23732l9.33417-9.12323h7.5939l6.27551,12.49829-2.42583,2.42583ZM52.53915,25.03746l-5.37901-10.75803c-.21094-.42188-.51856-.76465-.92286-1.02833-.40432-.2637-.85256-.39553-1.34476-.39553-.21094,0-.41309.02636-.60647.07911-.19336.05274-.37792.11425-.55371.18456l-5.48448,2.79498-11.39085-3.00592c-.03515-.03515-.07032-.05274-.10547-.05274h-.21094c-.03515,0-.07032.01758-.10547.05274l-11.39085,3.00592-5.48448-2.79498c-.17579-.07032-.36036-.13183-.55372-.18456-.19336-.05275-.39551-.07911-.60646-.07911-.4922,0-.94045.13183-1.34475.39553-.40431.26368-.71193.58886-.92287.9756v.05274L.75297,25.03746c-.07031.14062-.13184.30762-.18457.50098-.05274.19338-.0791.39553-.0791.60647,0,.4922.13184.94044.39552,1.34476.26368.4043.58888.71192.97561.92286h.05274l5.74816,2.90045,11.76,8.38493c.03515.03516.0791.06152.13185.0791.05274.01758.09668.02637.13183.02637v.05274l13.50027,3.37507h.21094c.10547,0,.21094-.01758.31641-.05274s.19336-.08789.26368-.15821l11.70726-11.76,5.69543-2.84771c.42188-.21094.76465-.51856,1.02833-.92286.2637-.40432.39553-.85256.39553-1.34476,0-.17579-.02636-.36035-.07911-.55371-.05274-.19338-.11425-.37794-.18456-.55373Z" fill="#fff"/>
</svg>